<svg width="206" height="27" fill="none" xmlns="http://www.w3.org/2000/svg"><g clip-path="url(#a)" fill="#fff"><path d="M19.11 2.297c-3.06-3.063-8.075-3.063-11.145 0L2.302 7.946c-3.07 3.062-3.07 8.065 0 11.118l5.663 5.649c3.06 3.053 8.085 3.053 11.145 0l5.663-5.65c3.07-3.062 3.07-8.064 0-11.117l-5.663-5.65Zm-8.895 19.506h-.038a.838.838 0 0 1-.839-.8.822.822 0 0 1 .22-.599.838.838 0 0 1 1.45.533.838.838 0 0 1-.802.866h.01Zm10.058-3.49c-1.154 1.825-2.67 3.1-4.061 3.423h-.038a4.071 4.071 0 0 1-.744.067c-.896 0-1.535-.343-1.983-.638a5.284 5.284 0 0 1-1.24-1.17c-2.392-3.071-2.554-8.816-2.564-9.462-.028-1.531.19-3.605 1.392-4.784.582-.58 1.316-.875 2.174-.875h.143c.858 0 1.592.295 2.183.875 1.201 1.189 1.42 3.262 1.392 4.784-.029 1.598-.324 4.679-1.974 7.446a.744.744 0 0 1-.648.362.766.766 0 0 1-.381-.105.753.753 0 0 1-.258-1.027c1.163-1.94 1.716-4.07 1.764-6.705.029-1.75-.305-3.062-.953-3.7-.296-.294-.668-.437-1.125-.437h-.134c-.457 0-.83.143-1.125.438-.639.637-.982 1.95-.944 3.7.039 2.158.553 6.39 2.25 8.568.277.352.572.637.877.837.296.2.64.39 1.164.39.143 0 .295-.01.457-.038.972-.238 2.193-1.313 3.108-2.758a.74.74 0 0 1 .639-.352.751.751 0 0 1 .734.58c.047.2.01.4-.096.561l-.009.02ZM48.465 8.5c-3.719 0-5.95 2.292-5.95 5.136 0 2.843 2.231 5.126 5.95 5.126 3.718 0 5.958-2.292 5.958-5.126 0-2.834-2.23-5.136-5.959-5.136Zm0 9.149c-1.774 0-3.137-1.798-3.137-4.013 0-2.216 1.363-4.033 3.136-4.033 1.774 0 3.147 1.807 3.147 4.033 0 2.225-1.364 4.013-3.146 4.013Zm6.465-7.625h3.918v8.312h2.955v-8.312h3.309V8.883H54.93v1.141Zm11.258 0h3.308v8.312h2.955v-8.312h3.928V8.883H66.187v1.141Zm-29.56 6.619v-7.76h-2.831v8.321a1.12 1.12 0 0 0 1.125 1.123h7.255v-1.132H37.2a.563.563 0 0 1-.562-.561l-.01.01Zm41.356-6.636v7.2a1.13 1.13 0 0 0 1.135 1.13h7.731v-1.121h-5.453a.571.571 0 0 1-.572-.562v-2.786h5.93v-1.103h-5.93v-2.207c0-.313.258-.56.572-.56h5.453V8.874h-7.73c-.62 0-1.135.504-1.135 1.132Zm19.386 3.047h-3.623V9.906h-1.325v7.561h1.325v-3.186h3.623v3.186h1.325v-7.56H97.37v3.147Zm7.301-3.273c-2.326 0-3.976 1.779-3.976 3.909v.019c0 2.13 1.621 3.89 3.957 3.89 2.335 0 3.975-1.779 3.975-3.909v-.019c0-2.13-1.621-3.89-3.956-3.89Zm2.555 3.938c0 1.464-1.049 2.653-2.555 2.653-1.507 0-2.574-1.208-2.574-2.682v-.019c0-1.465 1.048-2.653 2.555-2.653 1.506 0 2.574 1.207 2.574 2.681v.02Zm2.43-2.586h2.412v6.334h1.335v-6.334h2.412V9.906h-6.159v1.227Zm9.124 3.129h3.804v-1.198h-3.804v-1.969h4.29V9.906h-5.625v7.561h5.682v-1.189h-4.347v-2.016Zm7.68-4.356h-1.335v7.561h5.32v-1.208h-3.985V9.906Zm8.825 3.18c-1.458-.343-1.811-.609-1.811-1.189v-.019c0-.495.458-.894 1.23-.894.696 0 1.373.266 2.059.78l.715-1.008c-.772-.618-1.649-.951-2.746-.951-1.506 0-2.583.894-2.583 2.197v.019c0 1.398.906 1.873 2.526 2.254 1.411.323 1.707.618 1.707 1.16v.019c0 .561-.515.95-1.345.95-.934 0-1.668-.36-2.392-.979l-.801.951a4.673 4.673 0 0 0 3.165 1.208c1.592 0 2.707-.846 2.707-2.254v-.019c0-1.255-.819-1.826-2.421-2.216l-.01-.01Zm12.942.893-1.01-.533a12.122 12.122 0 0 1-.811 1.455l-1.296-1.322c1.01-.38 1.668-.97 1.668-1.968v-.02c0-1.017-.81-1.825-2.011-1.825-1.354 0-2.174.884-2.174 1.911v.02c0 .55.191 1.017.629 1.578-1.039.428-1.62 1.132-1.62 2.102v.019c0 1.303 1.067 2.159 2.488 2.159.905 0 1.668-.38 2.316-.98l1.011 1.027 1.001-.713-1.201-1.208c.391-.523.724-1.113 1.029-1.721l-.019.019Zm-4.395-2.245c0-.523.372-.903.906-.903.496 0 .858.342.858.856v.019c0 .542-.41.894-1.192 1.179-.419-.466-.572-.742-.572-1.122v-.029Zm.382 4.746c-.734 0-1.268-.466-1.268-1.103v-.02c0-.484.305-.95 1.01-1.255l1.688 1.722c-.429.409-.906.656-1.43.656Zm14.536-4.168v-.019c0-.656-.229-1.217-.629-1.635-.487-.476-1.23-.752-2.184-.752h-3.375v7.561h1.335v-2.634h1.669l1.859 2.634h1.582l-2.05-2.863c1.049-.304 1.802-1.046 1.802-2.292h-.009Zm-4.862 1.341v-2.539h1.935c.982 0 1.573.447 1.573 1.255v.02c0 .77-.61 1.264-1.563 1.264h-1.945Zm8.244.609h3.794v-1.198h-3.794v-1.969h4.29V9.906h-5.625v7.561h5.672v-1.189h-4.337v-2.016Zm9.271-1.176c-1.459-.343-1.812-.609-1.812-1.189v-.019c0-.495.458-.894 1.23-.894.696 0 1.373.266 2.059.78l.715-1.008c-.772-.618-1.649-.951-2.745-.951-1.507 0-2.584.894-2.584 2.197v.019c0 1.398.906 1.873 2.526 2.254 1.411.323 1.707.618 1.707 1.16v.019c0 .561-.515.95-1.344.95-.935 0-1.669-.36-2.393-.979l-.801.951a4.675 4.675 0 0 0 3.165 1.208c1.592 0 2.708-.846 2.708-2.254v-.019c0-1.255-.82-1.826-2.422-2.216l-.009-.01Zm7.885-3.305c-2.326 0-3.976 1.779-3.976 3.909v.019c0 2.13 1.621 3.89 3.957 3.89s3.975-1.779 3.975-3.909v-.019c0-2.13-1.62-3.89-3.956-3.89Zm2.555 3.938c0 1.464-1.049 2.653-2.555 2.653-1.506 0-2.574-1.208-2.574-2.682v-.019c0-1.465 1.049-2.653 2.555-2.653 1.506 0 2.574 1.207 2.574 2.681v.02Zm9.602-1.407v-.019c0-.656-.229-1.217-.629-1.635-.486-.476-1.24-.752-2.183-.752h-3.375v7.561h1.334v-2.634h1.669l1.859 2.634h1.582l-2.049-2.863c1.048-.304 1.802-1.046 1.802-2.292h-.01Zm-4.862 1.341v-2.539h1.935c.982 0 1.573.447 1.573 1.255v.02c0 .77-.61 1.264-1.563 1.264h-1.945Zm6.222-2.52h2.412v6.334h1.334v-6.334h2.412V9.906h-6.158v1.227Zm10.777 1.953c-1.458-.343-1.811-.609-1.811-1.189v-.019c0-.495.457-.894 1.23-.894.696 0 1.373.266 2.059.78l.715-1.008c-.772-.618-1.649-.951-2.746-.951-1.506 0-2.583.894-2.583 2.197v.019c0 1.398.905 1.873 2.526 2.254 1.411.323 1.707.618 1.707 1.16v.019c0 .561-.515.95-1.345.95-.934 0-1.668-.36-2.393-.979l-.8.951a4.673 4.673 0 0 0 3.165 1.208c1.592 0 2.707-.846 2.707-2.254v-.019c0-1.255-.82-1.826-2.421-2.216l-.01-.01Z"/></g><defs><clipPath id="a"><path fill="#fff" d="M0 0h206v27H0z"/></clipPath></defs></svg>