<svg width="72" height="72" viewBox="0 0 72 72" fill="none" xmlns="http://www.w3.org/2000/svg">
<path d="M9.34627 49.8875L9.34616 38.5255L11.0625 38.0599C19.1897 35.8552 27.5761 34.7382 36.0001 34.7382C44.424 34.7382 52.8103 35.8552 60.9372 38.0596L62.654 38.5255V49.8875M9.34627 49.8875C9.34627 49.8875 9.34545 57.4621 5.53857 57.4621M9.34627 49.8875H62.654M62.654 49.8875C62.654 49.8875 62.6547 57.4621 66.4616 57.4621M14.4232 30.9508C14.4232 25.9293 13.6683 20.936 12.1836 16.1365L11.8847 15.1703V14.5391H60.1155V15.1703L59.8167 16.1365C58.332 20.936 57.577 25.9293 57.577 30.9508M36.0001 22.1137H22.0386V30.9508M36.0001 22.1137V30.9508M36.0001 22.1137H49.9616V30.9508" stroke="#111111" stroke-width="1.6"/>
</svg>
