<svg width="80" height="80" viewBox="0 0 80 80" fill="none" xmlns="http://www.w3.org/2000/svg">
<path d="M12.5859 17.5705H42.4917C53.5027 17.5705 62.4288 26.4967 62.4288 37.5077M12.5859 17.5705C13.6066 17.5705 15.0551 16.9562 16.1006 16.3169C17.4969 15.4631 18.7143 14.3443 19.7338 13.064C20.5257 12.0696 21.3087 10.8861 21.3087 10.0941M12.5859 17.5705C13.6066 17.5705 15.0551 18.1849 16.1006 18.8242C17.4969 19.678 18.7143 20.7968 19.7338 22.0771C20.5257 23.0715 21.3087 24.255 21.3087 25.047M67.4131 62.4291H37.5074C26.4964 62.4291 17.5702 53.503 17.5702 42.492M67.4131 62.4291C66.3926 62.4291 64.9444 63.0434 63.8987 63.6827C62.5026 64.5367 61.2851 65.6555 60.2656 66.9357C59.4736 67.93 58.6906 69.1135 58.6906 69.9056M67.4131 62.4291C66.3926 62.4291 64.9441 61.8148 63.8987 61.1756C62.5026 60.3215 61.2851 59.2028 60.2656 57.9226C59.4736 56.9282 58.6906 55.7447 58.6906 54.9527" stroke="#111111" stroke-width="1.6"/>
<path d="M37 47V40.9322H41.1108M37 34H40.5854C41.7805 34 44 34.9622 44 37.8487C44 40.7352 41.6098 40.9276 40.5854 40.9276H37V34Z" stroke="#111111" stroke-width="1.6"/>
<path d="M39.9528 25C48.211 25 54.9057 31.6946 54.9057 39.9529C54.9057 48.2111 48.211 54.9057 39.9528 54.9057C31.6946 54.9057 25 48.2111 25 39.9529C25 31.6946 31.6946 25 39.9528 25Z" stroke="#111111" stroke-width="1.6"/>
</svg>
